<?xml version="1.0" encoding="UTF-8"?>
<!DOCTYPE svg PUBLIC "-//W3C//DTD SVG 1.1//EN" "http://www.w3.org/Graphics/SVG/1.1/DTD/svg11.dtd">
<svg xmlns="http://www.w3.org/2000/svg" version="1.1" width="90px" height="90px" style="shape-rendering:geometricPrecision; text-rendering:geometricPrecision; image-rendering:optimizeQuality; fill-rule:evenodd; clip-rule:evenodd" xmlns:xlink="http://www.w3.org/1999/xlink">
<g><path style="opacity:0.154" fill="#9a569a" d="M 37.5,30.5 C 36.1938,30.121 34.8605,29.7876 33.5,29.5C 32.7348,30.6119 31.7348,31.2786 30.5,31.5C 30.5,30.1667 30.5,28.8333 30.5,27.5C 31.1667,27.8333 31.8333,28.1667 32.5,28.5C 33.2329,26.7056 34.2329,25.0389 35.5,23.5C 35.2011,21.396 35.5344,19.396 36.5,17.5C 37.4922,21.7828 37.8256,26.1161 37.5,30.5 Z"/></g>
<g><path style="opacity:0.137" fill="#b9874e" d="M 80.5,30.5 C 79.6805,27.6946 79.1805,24.6946 79,21.5C 78.5045,23.4727 78.3379,25.4727 78.5,27.5C 76.901,27.7678 75.5676,27.4345 74.5,26.5C 75.5,26.5 76.5,26.5 77.5,26.5C 77.5,24.1667 77.5,21.8333 77.5,19.5C 78.5,19.5 79.5,19.5 80.5,19.5C 80.5,23.1667 80.5,26.8333 80.5,30.5 Z"/></g>
<g><path style="opacity:0.165" fill="#b7774f" d="M 61.5,25.5 C 60.5084,25.3284 59.8417,25.6618 59.5,26.5C 59.5,26.8333 59.5,27.1667 59.5,27.5C 59.1667,27.5 58.8333,27.5 58.5,27.5C 58.2052,24.0122 58.2052,20.3456 58.5,16.5C 59.5,16.5 60.5,16.5 61.5,16.5C 61.5,19.5 61.5,22.5 61.5,25.5 Z"/></g>
<g><path style="opacity:0.02" fill="#74465c" d="M 35.5,23.5 C 34.2329,25.0389 33.2329,26.7056 32.5,28.5C 32.5,26.8333 32.5,25.1667 32.5,23.5C 33.5,23.5 34.5,23.5 35.5,23.5 Z"/></g>
<g><path style="opacity:0.396" fill="#b4774c" d="M 70.5,24.5 C 67.8333,24.8333 65.1667,25.1667 62.5,25.5C 63.0841,22.5274 63.7508,19.5274 64.5,16.5C 65.3078,18.4233 65.8078,20.4233 66,22.5C 67.6225,23.0989 69.1225,23.7656 70.5,24.5 Z"/></g>
<g><path style="opacity:0.301" fill="#c18248" d="M 58.5,27.5 C 58.8333,27.5 59.1667,27.5 59.5,27.5C 57.6203,29.4347 55.6203,31.1014 53.5,32.5C 52.5041,32.5858 51.6708,32.2524 51,31.5C 50.51,32.7932 50.3433,34.1266 50.5,35.5C 47.1134,35.8618 45.4467,37.8618 45.5,41.5C 43.9731,41.427 42.9731,42.0937 42.5,43.5C 41.609,44.1098 40.609,44.4431 39.5,44.5C 41.3167,42.9878 42.3167,40.9878 42.5,38.5C 43.791,38.7373 44.791,38.404 45.5,37.5C 45.5,36.8333 45.5,36.1667 45.5,35.5C 47.913,34.3202 48.913,32.3202 48.5,29.5C 49.791,29.7373 50.791,29.404 51.5,28.5C 50.9285,27.0267 50.9285,25.36 51.5,23.5C 52.5,23.5 53.5,23.5 54.5,23.5C 54.5,25.1667 54.5,26.8333 54.5,28.5C 55.9587,28.5674 57.2921,28.2341 58.5,27.5 Z"/></g>
<g><path style="opacity:0.494" fill="#924f8e" d="M 30.5,27.5 C 24.7531,27.8782 19.0865,27.8782 13.5,27.5C 14.5676,26.5655 15.901,26.2322 17.5,26.5C 20.0679,25.5504 22.5679,25.5504 25,26.5C 24.8551,23.0767 26.3551,21.0767 29.5,20.5C 29.298,22.9496 29.6314,25.283 30.5,27.5 Z"/></g>
<g><path style="opacity:0.996" fill="#e77e2c" d="M 59.5,26.5 C 60.2674,27.172 60.9341,28.0053 61.5,29C 66.4576,29.0291 71.1243,29.8624 75.5,31.5C 75.44,32.0431 75.1067,32.3764 74.5,32.5C 72.941,31.5535 71.2743,30.8868 69.5,30.5C 68.2867,30.7472 67.62,31.4138 67.5,32.5C 65.7085,32.366 64.0418,32.6993 62.5,33.5C 62.6309,32.6236 62.2975,31.9569 61.5,31.5C 59.4899,32.5019 57.4899,33.5019 55.5,34.5C 56.6085,36.2141 55.9418,36.8808 53.5,36.5C 53.5,35.1667 53.5,33.8333 53.5,32.5C 55.6203,31.1014 57.6203,29.4347 59.5,27.5C 59.5,27.1667 59.5,26.8333 59.5,26.5 Z"/></g>
<g><path style="opacity:0.878" fill="#df9735" d="M 80.5,30.5 C 80.7512,32.1703 81.4178,33.6703 82.5,35C 81.6919,35.3076 81.0253,35.8076 80.5,36.5C 81.1272,37.4168 81.4606,38.4168 81.5,39.5C 80.8333,39.5 80.1667,39.5 79.5,39.5C 79.477,37.0733 78.977,34.74 78,32.5C 77.3292,31.7476 76.4959,31.4142 75.5,31.5C 71.1243,29.8624 66.4576,29.0291 61.5,29C 60.9341,28.0053 60.2674,27.172 59.5,26.5C 59.8417,25.6618 60.5084,25.3284 61.5,25.5C 61.8333,25.5 62.1667,25.5 62.5,25.5C 65.1667,25.1667 67.8333,24.8333 70.5,24.5C 72.153,24.6596 73.4863,25.3263 74.5,26.5C 75.5676,27.4345 76.901,27.7678 78.5,27.5C 78.3379,25.4727 78.5045,23.4727 79,21.5C 79.1805,24.6946 79.6805,27.6946 80.5,30.5 Z"/></g>
<g><path style="opacity:0.051" fill="#976556" d="M 51.5,28.5 C 50.791,29.404 49.791,29.7373 48.5,29.5C 48.913,32.3202 47.913,34.3202 45.5,35.5C 46.8654,33.4091 47.5321,31.0758 47.5,28.5C 48.8333,28.5 50.1667,28.5 51.5,28.5 Z"/></g>
<g><path style="opacity:0.722" fill="#87478a" d="M 17.5,26.5 C 15.901,26.2322 14.5676,26.5655 13.5,27.5C 12.8333,28.1667 12.1667,28.8333 11.5,29.5C 10.977,31.7079 9.64369,33.2079 7.5,34C 7.95735,34.414 8.29069,34.914 8.5,35.5C 4.33651,41.1396 3.66985,47.1396 6.5,53.5C 4.65832,51.8102 3.32498,49.8102 2.5,47.5C 2.71351,45.8561 2.38017,44.3561 1.5,43C 2.62023,38.8442 4.62023,35.1776 7.5,32C 6.35945,31.2588 6.35945,30.4255 7.5,29.5C 9.59869,27.212 12.0987,25.5453 15,24.5C 15.1922,22.4233 15.6922,20.4233 16.5,18.5C 17.48,21.0865 17.8134,23.7531 17.5,26.5 Z"/></g>
<g><path style="opacity:0.569" fill="#884491" d="M 13.5,27.5 C 19.0865,27.8782 24.7531,27.8782 30.5,27.5C 30.5,28.8333 30.5,30.1667 30.5,31.5C 29.5041,31.4142 28.6708,31.7476 28,32.5C 27.5756,30.3855 26.4089,29.5521 24.5,30C 26.8146,31.3675 26.8146,32.2009 24.5,32.5C 23.1331,31.7745 21.7997,31.1079 20.5,30.5C 20.0623,29.4937 19.3957,29.4937 18.5,30.5C 16.7215,31.6697 15.7215,33.3364 15.5,35.5C 14.8333,35.5 14.1667,35.5 13.5,35.5C 14.1888,34.2928 14.3554,32.9594 14,31.5C 14.7504,30.8742 15.5838,30.3742 16.5,30C 14.8659,29.5065 13.1992,29.3398 11.5,29.5C 12.1667,28.8333 12.8333,28.1667 13.5,27.5 Z"/></g>
<g><path style="opacity:0.102" fill="#5f375b" d="M 20.5,30.5 C 20.8503,33.7104 22.3503,34.7104 25,33.5C 27.3208,36.0958 29.1541,35.7625 30.5,32.5C 30.1052,35.5225 31.1052,36.5225 33.5,35.5C 35.7113,36.1928 36.0446,37.3594 34.5,39C 35.5812,40.3707 36.4145,41.8707 37,43.5C 37.3826,42.944 37.8826,42.6107 38.5,42.5C 38.5,43.1667 38.5,43.8333 38.5,44.5C 37.8333,44.8333 37.1667,45.1667 36.5,45.5C 35.0927,43.6917 33.926,41.6917 33,39.5C 31.2835,40.5523 30.2835,39.8856 30,37.5C 29.338,39.8127 28.838,42.146 28.5,44.5C 27.5,44.5 26.5,44.5 25.5,44.5C 25.6633,42.1432 25.4966,39.8098 25,37.5C 23.6555,42.9735 23.4889,48.3068 24.5,53.5C 24.5,53.8333 24.5,54.1667 24.5,54.5C 23.1667,50.8333 21.8333,47.1667 20.5,43.5C 20.1667,43.5 19.8333,43.5 19.5,43.5C 19.2108,39.8936 19.5442,36.3936 20.5,33C 19.6195,32.2917 18.9528,31.4584 18.5,30.5C 19.3957,29.4937 20.0623,29.4937 20.5,30.5 Z"/></g>
<g><path style="opacity:0.086" fill="#a0554e" d="M 45.5,37.5 C 44.791,38.404 43.791,38.7373 42.5,38.5C 42.3404,36.847 41.6737,35.5137 40.5,34.5C 40.5,34.1667 40.5,33.8333 40.5,33.5C 40.7828,32.7109 41.2828,32.0442 42,31.5C 42.7388,33.8888 43.9054,35.8888 45.5,37.5 Z"/></g>
<g><path style="opacity:0.796" fill="#c95c3f" d="M 62.5,33.5 C 61.8333,33.5 61.5,33.8333 61.5,34.5C 60.5,34.5 59.5,34.5 58.5,34.5C 58.8064,37.3854 58.4731,40.0521 57.5,42.5C 57.5,41.1667 57.5,39.8333 57.5,38.5C 56.2946,37.3143 54.9613,37.3143 53.5,38.5C 53.5,38.1667 53.5,37.8333 53.5,37.5C 53.5,37.1667 53.5,36.8333 53.5,36.5C 55.9418,36.8808 56.6085,36.2141 55.5,34.5C 57.4899,33.5019 59.4899,32.5019 61.5,31.5C 62.2975,31.9569 62.6309,32.6236 62.5,33.5 Z"/></g>
<g><path style="opacity:0.588" fill="#cd713e" d="M 75.5,31.5 C 76.4959,31.4142 77.3292,31.7476 78,32.5C 78.977,34.74 79.477,37.0733 79.5,39.5C 78.3121,38.3157 77.1455,38.3157 76,39.5C 74.5186,34.0295 73.1853,33.6962 72,38.5C 71.8019,36.6183 71.3019,34.9516 70.5,33.5C 70.1959,31.2043 69.1959,30.871 67.5,32.5C 67.62,31.4138 68.2867,30.7472 69.5,30.5C 71.2743,30.8868 72.941,31.5535 74.5,32.5C 75.1067,32.3764 75.44,32.0431 75.5,31.5 Z"/></g>
<g><path style="opacity:0.718" fill="#783c7d" d="M 30.5,32.5 C 32.0443,32.7031 33.3777,33.3698 34.5,34.5C 35.086,34.2907 35.586,33.9574 36,33.5C 37.0173,35.3759 37.8506,37.3759 38.5,39.5C 39.1835,39.1373 39.8501,38.8039 40.5,38.5C 40.4729,40.1993 39.8062,41.5326 38.5,42.5C 37.8826,42.6107 37.3826,42.944 37,43.5C 36.4145,41.8707 35.5812,40.3707 34.5,39C 36.0446,37.3594 35.7113,36.1928 33.5,35.5C 31.1052,36.5225 30.1052,35.5225 30.5,32.5 Z"/></g>
<g><path style="opacity:0.996" fill="#ea832a" d="M 53.5,32.5 C 53.5,33.8333 53.5,35.1667 53.5,36.5C 53.5,36.8333 53.5,37.1667 53.5,37.5C 52.7784,37.9175 52.2784,38.5842 52,39.5C 51.6667,39.1667 51.3333,38.8333 51,38.5C 49.2591,39.7577 47.4258,40.7577 45.5,41.5C 45.4467,37.8618 47.1134,35.8618 50.5,35.5C 50.3433,34.1266 50.51,32.7932 51,31.5C 51.6708,32.2524 52.5041,32.5858 53.5,32.5 Z"/></g>
<g><path style="opacity:0.282" fill="#a95149" d="M 70.5,33.5 C 69.71,34.6085 69.21,35.9419 69,37.5C 68.6758,35.4311 67.8425,35.0977 66.5,36.5C 65.7492,35.624 65.2492,34.624 65,33.5C 64.5034,35.8098 64.3367,38.1432 64.5,40.5C 63.8333,41.8333 63.1667,43.1667 62.5,44.5C 62.5,43.1667 62.5,41.8333 62.5,40.5C 62.5,38.1667 62.5,35.8333 62.5,33.5C 64.0418,32.6993 65.7085,32.366 67.5,32.5C 69.1959,30.871 70.1959,31.2043 70.5,33.5 Z"/></g>
<g><path style="opacity:0.498" fill="#c78b45" d="M 80.5,30.5 C 83.5985,31.8635 85.2651,34.1968 85.5,37.5C 84.8166,39.1765 83.4832,39.8432 81.5,39.5C 81.4606,38.4168 81.1272,37.4168 80.5,36.5C 81.0253,35.8076 81.6919,35.3076 82.5,35C 81.4178,33.6703 80.7512,32.1703 80.5,30.5 Z"/></g>
<g><path style="opacity:0.718" fill="#844186" d="M 30.5,31.5 C 31.7348,31.2786 32.7348,30.6119 33.5,29.5C 34.8605,29.7876 36.1938,30.121 37.5,30.5C 37.8102,32.1436 38.8102,33.1436 40.5,33.5C 40.5,33.8333 40.5,34.1667 40.5,34.5C 40.5,35.8333 40.5,37.1667 40.5,38.5C 39.8501,38.8039 39.1835,39.1373 38.5,39.5C 37.8506,37.3759 37.0173,35.3759 36,33.5C 35.586,33.9574 35.086,34.2907 34.5,34.5C 33.3777,33.3698 32.0443,32.7031 30.5,32.5C 29.1541,35.7625 27.3208,36.0958 25,33.5C 22.3503,34.7104 20.8503,33.7104 20.5,30.5C 21.7997,31.1079 23.1331,31.7745 24.5,32.5C 26.8146,32.2009 26.8146,31.3675 24.5,30C 26.4089,29.5521 27.5756,30.3855 28,32.5C 28.6708,31.7476 29.5041,31.4142 30.5,31.5 Z"/></g>
<g><path style="opacity:0.584" fill="#9e4863" d="M 40.5,34.5 C 41.6737,35.5137 42.3404,36.847 42.5,38.5C 42.3167,40.9878 41.3167,42.9878 39.5,44.5C 39.1667,44.5 38.8333,44.5 38.5,44.5C 38.5,43.8333 38.5,43.1667 38.5,42.5C 39.8062,41.5326 40.4729,40.1993 40.5,38.5C 40.5,37.1667 40.5,35.8333 40.5,34.5 Z"/></g>
<g><path style="opacity:0.184" fill="#994e4e" d="M 61.5,34.5 C 60.2245,37.3356 59.5578,40.3356 59.5,43.5C 59.5,46.8333 59.5,50.1667 59.5,53.5C 58.1667,53.5 57.5,52.8333 57.5,51.5C 56.9054,48.3463 56.9054,45.3463 57.5,42.5C 58.4731,40.0521 58.8064,37.3854 58.5,34.5C 59.5,34.5 60.5,34.5 61.5,34.5 Z"/></g>
<g><path style="opacity:0.31" fill="#81418a" d="M 13.5,35.5 C 14.1667,35.5 14.8333,35.5 15.5,35.5C 15.2221,39.5038 14.2221,43.3372 12.5,47C 12.9891,48.1385 13.3225,49.3052 13.5,50.5C 13.1583,51.3382 12.4916,51.6716 11.5,51.5C 11.5264,48.2919 10.5264,46.2919 8.5,45.5C 9.16667,44.8333 9.83333,44.1667 10.5,43.5C 8.5394,39.5511 9.5394,36.8844 13.5,35.5 Z"/></g>
<g><path style="opacity:0.125" fill="#643a5a" d="M 62.5,33.5 C 62.5,35.8333 62.5,38.1667 62.5,40.5C 61.8999,41.9002 60.8999,42.9002 59.5,43.5C 59.5578,40.3356 60.2245,37.3356 61.5,34.5C 61.5,33.8333 61.8333,33.5 62.5,33.5 Z"/></g>
<g><path style="opacity:0.114" fill="#613958" d="M 70.5,33.5 C 70.5,36.1667 70.5,38.8333 70.5,41.5C 69.6981,42.9516 69.1981,44.6183 69,46.5C 66.3792,45.2531 64.8792,43.2531 64.5,40.5C 64.3367,38.1432 64.5034,35.8098 65,33.5C 65.2492,34.624 65.7492,35.624 66.5,36.5C 67.8425,35.0977 68.6758,35.4311 69,37.5C 69.21,35.9419 69.71,34.6085 70.5,33.5 Z"/></g>
<g><path style="opacity:0.107" fill="#5f365b" d="M 18.5,30.5 C 18.9528,31.4584 19.6195,32.2917 20.5,33C 19.5442,36.3936 19.2108,39.8936 19.5,43.5C 16.46,44.7342 15.1267,47.0676 15.5,50.5C 14.8333,50.5 14.1667,50.5 13.5,50.5C 13.3225,49.3052 12.9891,48.1385 12.5,47C 14.2221,43.3372 15.2221,39.5038 15.5,35.5C 15.7215,33.3364 16.7215,31.6697 18.5,30.5 Z"/></g>
<g><path style="opacity:0.796" fill="#c85c40" d="M 53.5,40.5 C 53.1788,42.0481 52.1788,42.7148 50.5,42.5C 50.5,44.5 50.5,46.5 50.5,48.5C 49.5,48.5 48.5,48.5 47.5,48.5C 47.2627,49.791 47.596,50.791 48.5,51.5C 48.44,52.0431 48.1067,52.3764 47.5,52.5C 46.8503,50.8164 45.8503,49.4831 44.5,48.5C 44.5,48.1667 44.5,47.8333 44.5,47.5C 43.3398,45.7973 44.0065,45.1307 46.5,45.5C 46.5,44.5 46.5,43.5 46.5,42.5C 48.921,42.1218 51.2543,41.4552 53.5,40.5 Z"/></g>
<g><path style="opacity:1" fill="#9646ae" d="M 11.5,29.5 C 13.1992,29.3398 14.8659,29.5065 16.5,30C 15.5838,30.3742 14.7504,30.8742 14,31.5C 14.3554,32.9594 14.1888,34.2928 13.5,35.5C 9.5394,36.8844 8.5394,39.5511 10.5,43.5C 9.83333,44.1667 9.16667,44.8333 8.5,45.5C 10.5264,46.2919 11.5264,48.2919 11.5,51.5C 11.9321,52.7095 12.5987,53.7095 13.5,54.5C 14.241,56.3542 15.241,58.0209 16.5,59.5C 12.2798,59.5729 9.94644,57.5729 9.5,53.5C 8.5,53.5 7.5,53.5 6.5,53.5C 3.66985,47.1396 4.33651,41.1396 8.5,35.5C 8.29069,34.914 7.95735,34.414 7.5,34C 9.64369,33.2079 10.977,31.7079 11.5,29.5 Z"/></g>
<g><path style="opacity:0.996" fill="#df6835" d="M 53.5,37.5 C 53.5,37.8333 53.5,38.1667 53.5,38.5C 53.5,39.1667 53.5,39.8333 53.5,40.5C 51.2543,41.4552 48.921,42.1218 46.5,42.5C 46.5,43.5 46.5,44.5 46.5,45.5C 44.0065,45.1307 43.3398,45.7973 44.5,47.5C 42.8235,46.8166 42.1568,45.4832 42.5,43.5C 42.9731,42.0937 43.9731,41.427 45.5,41.5C 47.4258,40.7577 49.2591,39.7577 51,38.5C 51.3333,38.8333 51.6667,39.1667 52,39.5C 52.2784,38.5842 52.7784,37.9175 53.5,37.5 Z"/></g>
<g><path style="opacity:0.333" fill="#ac5249" d="M 57.5,38.5 C 54.8169,41.5711 53.4836,45.2378 53.5,49.5C 52.609,48.8902 51.609,48.5569 50.5,48.5C 50.5,46.5 50.5,44.5 50.5,42.5C 52.1788,42.7148 53.1788,42.0481 53.5,40.5C 53.5,39.8333 53.5,39.1667 53.5,38.5C 54.9613,37.3143 56.2946,37.3143 57.5,38.5 Z"/></g>
<g><path style="opacity:0.085" fill="#673959" d="M 57.5,38.5 C 57.5,39.8333 57.5,41.1667 57.5,42.5C 56.9054,45.3463 56.9054,48.3463 57.5,51.5C 55.9382,51.2671 54.6049,50.6005 53.5,49.5C 53.4836,45.2378 54.8169,41.5711 57.5,38.5 Z"/></g>
<g><path style="opacity:0.549" fill="#c88d44" d="M 86.5,40.5 C 87.4921,43.9012 87.1587,47.2345 85.5,50.5C 84.0755,48.9689 83.4088,49.3023 83.5,51.5C 81.5891,51.5743 80.4224,52.5743 80,54.5C 79.3021,53.3094 78.4687,52.3094 77.5,51.5C 78.8083,50.7677 80.1416,49.9344 81.5,49C 80.376,48.7508 79.376,48.2508 78.5,47.5C 79.1272,46.5832 79.4606,45.5832 79.5,44.5C 79.5774,43.2502 80.244,42.4169 81.5,42C 81.1667,41.6667 80.8333,41.3333 80.5,41C 82.3867,41.4229 84.3867,41.2563 86.5,40.5 Z"/></g>
<g><path style="opacity:1" fill="#d4674a" d="M 42.5,43.5 C 42.1568,45.4832 42.8235,46.8166 44.5,47.5C 44.5,47.8333 44.5,48.1667 44.5,48.5C 43.3995,49.6049 42.7329,50.9382 42.5,52.5C 42.5,53.1667 42.5,53.8333 42.5,54.5C 42.6567,55.8734 42.49,57.2068 42,58.5C 41.8019,56.6183 41.3019,54.9516 40.5,53.5C 40.0623,52.4937 39.3957,52.4937 38.5,53.5C 37.962,51.8828 37.6287,50.2161 37.5,48.5C 35.8212,48.7148 34.8212,48.0481 34.5,46.5C 35.1667,46.1667 35.8333,45.8333 36.5,45.5C 37.1667,45.1667 37.8333,44.8333 38.5,44.5C 38.8333,44.5 39.1667,44.5 39.5,44.5C 40.609,44.4431 41.609,44.1098 42.5,43.5 Z"/></g>
<g><path style="opacity:0.153" fill="#b25a47" d="M 70.5,33.5 C 71.3019,34.9516 71.8019,36.6183 72,38.5C 73.1853,33.6962 74.5186,34.0295 76,39.5C 77.1455,38.3157 78.3121,38.3157 79.5,39.5C 80.1667,39.5 80.8333,39.5 81.5,39.5C 83.4832,39.8432 84.8166,39.1765 85.5,37.5C 86.404,38.209 86.7373,39.209 86.5,40.5C 84.3867,41.2563 82.3867,41.4229 80.5,41C 80.8333,41.3333 81.1667,41.6667 81.5,42C 80.244,42.4169 79.5774,43.2502 79.5,44.5C 78.603,43.4019 77.7697,43.4019 77,44.5C 76.0853,43.6721 75.4186,42.6721 75,41.5C 74.521,45.6526 73.6876,49.3193 72.5,52.5C 71.8243,51.3984 71.1577,50.3984 70.5,49.5C 70.5,46.8333 70.5,44.1667 70.5,41.5C 70.5,38.8333 70.5,36.1667 70.5,33.5 Z"/></g>
<g><path style="opacity:0.243" fill="#9b529c" d="M 20.5,43.5 C 21.8333,47.1667 23.1667,50.8333 24.5,54.5C 20.749,54.0011 17.0824,54.0011 13.5,54.5C 12.5987,53.7095 11.9321,52.7095 11.5,51.5C 12.4916,51.6716 13.1583,51.3382 13.5,50.5C 14.1667,50.5 14.8333,50.5 15.5,50.5C 16.5856,53.9398 18.2522,53.9398 20.5,50.5C 20.162,48.3448 20.162,46.0115 20.5,43.5 Z"/></g>
<g><path style="opacity:0.267" fill="#984a4d" d="M 44.5,48.5 C 45.8503,49.4831 46.8503,50.8164 47.5,52.5C 48.1067,52.3764 48.44,52.0431 48.5,51.5C 49.5036,54.0452 49.837,57.3786 49.5,61.5C 49.1667,61.5 48.8333,61.5 48.5,61.5C 48.249,57.8206 47.0823,54.4872 45,51.5C 44.3292,52.2524 43.4959,52.5858 42.5,52.5C 42.7329,50.9382 43.3995,49.6049 44.5,48.5 Z"/></g>
<g><path style="opacity:0.106" fill="#91494f" d="M 64.5,40.5 C 64.1805,45.3633 64.5139,50.03 65.5,54.5C 64.791,55.404 63.791,55.7373 62.5,55.5C 62.5,51.8333 62.5,48.1667 62.5,44.5C 63.1667,43.1667 63.8333,41.8333 64.5,40.5 Z"/></g>
<g><path style="opacity:0.612" fill="#c05b68" d="M 34.5,46.5 C 34.8212,48.0481 35.8212,48.7148 37.5,48.5C 37.6287,50.2161 37.962,51.8828 38.5,53.5C 37.5041,53.5858 36.6708,53.2524 36,52.5C 35.6924,53.3081 35.1924,53.9747 34.5,54.5C 32.8273,52.9137 30.8273,52.2471 28.5,52.5C 29.0076,50.7673 29.841,50.434 31,51.5C 32.6257,50.0445 33.7924,48.3779 34.5,46.5 Z"/></g>
<g><path style="opacity:0.108" fill="#683957" d="M 48.5,61.5 C 47.8826,61.3893 47.3826,61.056 47,60.5C 46.5831,61.756 45.7498,62.4226 44.5,62.5C 44.1667,62.5 43.8333,62.5 43.5,62.5C 43.8064,59.6146 43.4731,56.9479 42.5,54.5C 42.5,53.8333 42.5,53.1667 42.5,52.5C 43.4959,52.5858 44.3292,52.2524 45,51.5C 47.0823,54.4872 48.249,57.8206 48.5,61.5 Z"/></g>
<g><path style="opacity:0.635" fill="#c05f43" d="M 50.5,48.5 C 51.1098,49.391 51.4431,50.391 51.5,51.5C 52.4054,52.9643 52.4054,54.2976 51.5,55.5C 51.5,57.5 51.5,59.5 51.5,61.5C 51.5,62.8333 51.5,64.1667 51.5,65.5C 50.8333,65.1667 50.1667,64.8333 49.5,64.5C 48.8843,63.7978 48.8843,62.7978 49.5,61.5C 49.837,57.3786 49.5036,54.0452 48.5,51.5C 47.596,50.791 47.2627,49.791 47.5,48.5C 48.5,48.5 49.5,48.5 50.5,48.5 Z"/></g>
<g><path style="opacity:0.235" fill="#974c4f" d="M 79.5,44.5 C 79.4606,45.5832 79.1272,46.5832 78.5,47.5C 79.376,48.2508 80.376,48.7508 81.5,49C 80.1416,49.9344 78.8083,50.7677 77.5,51.5C 75.4187,53.7646 72.752,55.0979 69.5,55.5C 70.3414,53.6208 70.6747,51.6208 70.5,49.5C 71.1577,50.3984 71.8243,51.3984 72.5,52.5C 73.6876,49.3193 74.521,45.6526 75,41.5C 75.4186,42.6721 76.0853,43.6721 77,44.5C 77.7697,43.4019 78.603,43.4019 79.5,44.5 Z"/></g>
<g><path style="opacity:0.373" fill="#c68445" d="M 77.5,51.5 C 78.4687,52.3094 79.3021,53.3094 80,54.5C 80.4224,52.5743 81.5891,51.5743 83.5,51.5C 83.2108,55.6499 81.2108,57.1499 77.5,56C 78.3805,56.7083 79.0472,57.5416 79.5,58.5C 79.1667,58.5 78.8333,58.5 78.5,58.5C 77.8826,58.3893 77.3826,58.056 77,57.5C 76.5291,59.2464 75.8624,60.913 75,62.5C 74.6667,61.1667 74.3333,59.8333 74,58.5C 72.7772,59.357 71.6106,60.357 70.5,61.5C 69.8333,61.5 69.5,61.1667 69.5,60.5C 69.5,59.1667 69.5,57.8333 69.5,56.5C 69.5,56.1667 69.5,55.8333 69.5,55.5C 72.752,55.0979 75.4187,53.7646 77.5,51.5 Z"/></g>
<g><path style="opacity:0.027" fill="#62385e" d="M 2.5,47.5 C 3.32498,49.8102 4.65832,51.8102 6.5,53.5C 6.5,53.8333 6.5,54.1667 6.5,54.5C 5.83431,57.0277 5.16764,59.6944 4.5,62.5C 3.91395,62.2907 3.41395,61.9574 3,61.5C 2.50085,56.8452 2.33418,52.1785 2.5,47.5 Z"/></g>
<g><path style="opacity:0.153" fill="#a3584d" d="M 85.5,50.5 C 84.3157,51.6879 84.3157,52.8545 85.5,54C 84.6667,54.8333 83.8333,55.6667 83,56.5C 82.5017,59.8168 82.335,63.1501 82.5,66.5C 81.71,67.6085 81.21,68.9419 81,70.5C 80.8213,66.9748 80.3213,63.6414 79.5,60.5C 79.5,59.8333 79.5,59.1667 79.5,58.5C 79.0472,57.5416 78.3805,56.7083 77.5,56C 81.2108,57.1499 83.2108,55.6499 83.5,51.5C 83.4088,49.3023 84.0755,48.9689 85.5,50.5 Z"/></g>
<g><path style="opacity:0.969" fill="#b64ea2" d="M 28.5,52.5 C 30.6939,54.2132 31.6939,56.2132 31.5,58.5C 29.8762,58.3601 28.7096,59.0267 28,60.5C 27.6667,63.1667 27.3333,65.8333 27,68.5C 25.2384,60.7044 24.405,60.7044 24.5,68.5C 23.8333,66.5 23.1667,64.5 22.5,62.5C 22.5,61.5 22.5,60.5 22.5,59.5C 20.2967,59.0651 18.2967,59.0651 16.5,59.5C 15.241,58.0209 14.241,56.3542 13.5,54.5C 17.0824,54.0011 20.749,54.0011 24.5,54.5C 24.5,54.1667 24.5,53.8333 24.5,53.5C 25.7931,53.1254 27.1264,52.7921 28.5,52.5 Z"/></g>
<g><path style="opacity:0.306" fill="#c89048" d="M 69.5,56.5 C 69.5,57.8333 69.5,59.1667 69.5,60.5C 68.1667,60.5 66.8333,60.5 65.5,60.5C 65.9175,59.7784 66.5842,59.2784 67.5,59C 65.9391,58.6824 64.7724,57.8491 64,56.5C 62.8989,58.3939 61.5655,59.0606 60,58.5C 59.2748,56.8425 59.7748,55.8425 61.5,55.5C 61.8333,55.5 62.1667,55.5 62.5,55.5C 63.791,55.7373 64.791,55.404 65.5,54.5C 65.4346,54.0618 65.6012,53.7284 66,53.5C 66.7589,55.0629 67.9256,56.0629 69.5,56.5 Z"/></g>
<g><path style="opacity:0.169" fill="#974956" d="M 40.5,53.5 C 41.3019,54.9516 41.8019,56.6183 42,58.5C 42.49,57.2068 42.6567,55.8734 42.5,54.5C 43.4731,56.9479 43.8064,59.6146 43.5,62.5C 43.5,62.8333 43.5,63.1667 43.5,63.5C 42.7784,63.9175 42.2784,64.5842 42,65.5C 41.5776,63.5743 40.4109,62.5743 38.5,62.5C 38.0914,59.1445 38.7581,56.1445 40.5,53.5 Z"/></g>
<g><path style="opacity:0.286" fill="#c57944" d="M 50.5,48.5 C 51.609,48.5569 52.609,48.8902 53.5,49.5C 54.6049,50.6005 55.9382,51.2671 57.5,51.5C 57.5,52.8333 58.1667,53.5 59.5,53.5C 60.1667,54.1667 60.8333,54.8333 61.5,55.5C 59.7748,55.8425 59.2748,56.8425 60,58.5C 61.5655,59.0606 62.8989,58.3939 64,56.5C 64.7724,57.8491 65.9391,58.6824 67.5,59C 66.5842,59.2784 65.9175,59.7784 65.5,60.5C 64.6715,61.3324 63.8382,60.999 63,59.5C 62.5357,60.0944 62.369,60.7611 62.5,61.5C 60.712,61.7852 59.0453,61.4519 57.5,60.5C 58.3094,58.9291 58.6427,57.2624 58.5,55.5C 57.1779,55.33 56.0113,55.6634 55,56.5C 54.6667,55.1667 54.3333,53.8333 54,52.5C 53.3292,51.7476 52.4959,51.4142 51.5,51.5C 51.4431,50.391 51.1098,49.391 50.5,48.5 Z"/></g>
<g><path style="opacity:0.079" fill="#9e514d" d="M 78.5,58.5 C 78.5,59.8333 78.5,61.1667 78.5,62.5C 77.5041,62.4142 76.6708,62.7476 76,63.5C 75.6667,66.5 75.3333,69.5 75,72.5C 74.1184,69.2105 73.4517,65.8772 73,62.5C 71.7308,63.9047 71.2308,65.5714 71.5,67.5C 70.5386,65.7354 70.2053,63.7354 70.5,61.5C 71.6106,60.357 72.7772,59.357 74,58.5C 74.3333,59.8333 74.6667,61.1667 75,62.5C 75.8624,60.913 76.5291,59.2464 77,57.5C 77.3826,58.056 77.8826,58.3893 78.5,58.5 Z"/></g>
<g><path style="opacity:0.329" fill="#ad4b72" d="M 28.5,52.5 C 30.8273,52.2471 32.8273,52.9137 34.5,54.5C 35.1924,53.9747 35.6924,53.3081 36,52.5C 36.6708,53.2524 37.5041,53.5858 38.5,53.5C 39.3957,52.4937 40.0623,52.4937 40.5,53.5C 38.7581,56.1445 38.0914,59.1445 38.5,62.5C 38.5,63.5 38.5,64.5 38.5,65.5C 38.1692,67.3224 37.5025,68.9891 36.5,70.5C 35.6851,69.5707 34.8518,68.5707 34,67.5C 34.0704,64.008 33.2371,61.008 31.5,58.5C 31.6939,56.2132 30.6939,54.2132 28.5,52.5 Z"/></g>
<g><path style="opacity:0.166" fill="#64395a" d="M 48.5,61.5 C 48.8333,61.5 49.1667,61.5 49.5,61.5C 48.8843,62.7978 48.8843,63.7978 49.5,64.5C 49.335,67.8499 49.5017,71.1832 50,74.5C 50.2321,75.7375 50.7321,76.7375 51.5,77.5C 51.5,81.5 51.5,85.5 51.5,89.5C 50.5,89.5 49.5,89.5 48.5,89.5C 48.6663,82.1591 48.4997,74.8258 48,67.5C 47.7508,68.624 47.2508,69.624 46.5,70.5C 45.2054,67.9881 44.5387,65.3214 44.5,62.5C 45.7498,62.4226 46.5831,61.756 47,60.5C 47.3826,61.056 47.8826,61.3893 48.5,61.5 Z"/></g>
<g><path style="opacity:0.282" fill="#b75845" d="M 51.5,51.5 C 52.4959,51.4142 53.3292,51.7476 54,52.5C 54.3333,53.8333 54.6667,55.1667 55,56.5C 56.0113,55.6634 57.1779,55.33 58.5,55.5C 58.6427,57.2624 58.3094,58.9291 57.5,60.5C 59.0453,61.4519 60.712,61.7852 62.5,61.5C 62.5,62.8333 62.5,64.1667 62.5,65.5C 59.9791,67.0304 58.9791,69.3637 59.5,72.5C 59.5,73.5 59.5,74.5 59.5,75.5C 58.8333,76.8333 58.1667,78.1667 57.5,79.5C 57.5,78.8333 57.5,78.1667 57.5,77.5C 57.6655,73.4862 57.4988,69.4862 57,65.5C 56.5831,66.756 55.7498,67.4226 54.5,67.5C 54.9504,63.0116 53.9504,59.0116 51.5,55.5C 52.4054,54.2976 52.4054,52.9643 51.5,51.5 Z"/></g>
<g><path style="opacity:0.071" fill="#974d96" d="M 31.5,58.5 C 32.4054,59.7024 32.4054,61.0357 31.5,62.5C 31.5,66.8333 31.5,71.1667 31.5,75.5C 30.6981,76.9516 30.1981,78.6183 30,80.5C 29.8227,76.6437 29.3227,72.977 28.5,69.5C 27.5041,69.4142 26.6708,69.7476 26,70.5C 25.7216,69.5842 25.2216,68.9175 24.5,68.5C 24.405,60.7044 25.2384,60.7044 27,68.5C 27.3333,65.8333 27.6667,63.1667 28,60.5C 28.7096,59.0267 29.8762,58.3601 31.5,58.5 Z"/></g>
<g><path style="opacity:0.726" fill="#7b3d86" d="M 6.5,53.5 C 7.5,53.5 8.5,53.5 9.5,53.5C 9.94644,57.5729 12.2798,59.5729 16.5,59.5C 18.2967,59.0651 20.2967,59.0651 22.5,59.5C 22.5,60.5 22.5,61.5 22.5,62.5C 21.8333,62.1667 21.1667,61.8333 20.5,61.5C 17.9796,60.4502 16.6462,61.4502 16.5,64.5C 16.5,65.1667 16.5,65.8333 16.5,66.5C 15.6066,70.1909 14.6066,73.8576 13.5,77.5C 13.8195,72.6367 13.4861,67.97 12.5,63.5C 9.77512,61.0101 7.77512,58.0101 6.5,54.5C 6.5,54.1667 6.5,53.8333 6.5,53.5 Z"/></g>
<g><path style="opacity:0.268" fill="#9c4c4c" d="M 69.5,69.5 C 68.391,69.5569 67.391,69.8902 66.5,70.5C 66.3354,67.4816 66.502,64.4816 67,61.5C 69.1651,63.6525 69.9984,66.3192 69.5,69.5 Z"/></g>
<g><path style="opacity:0.104" fill="#663958" d="M 51.5,55.5 C 53.9504,59.0116 54.9504,63.0116 54.5,67.5C 54.5,68.1667 54.5,68.8333 54.5,69.5C 52.9016,67.1433 51.9016,64.4766 51.5,61.5C 51.5,59.5 51.5,57.5 51.5,55.5 Z"/></g>
<g><path style="opacity:0.557" fill="#bb5d44" d="M 65.5,60.5 C 66.8333,60.5 68.1667,60.5 69.5,60.5C 69.5,61.1667 69.8333,61.5 70.5,61.5C 70.2053,63.7354 70.5386,65.7354 71.5,67.5C 71.5,67.8333 71.5,68.1667 71.5,68.5C 70.8333,68.8333 70.1667,69.1667 69.5,69.5C 69.9984,66.3192 69.1651,63.6525 67,61.5C 66.502,64.4816 66.3354,67.4816 66.5,70.5C 67.8333,72.1667 67.8333,73.8333 66.5,75.5C 65.7109,75.2172 65.0442,74.7172 64.5,74C 65.7948,70.2136 65.7948,66.3803 64.5,62.5C 63.8165,62.1373 63.1499,61.8039 62.5,61.5C 62.369,60.7611 62.5357,60.0944 63,59.5C 63.8382,60.999 64.6715,61.3324 65.5,60.5 Z"/></g>
<g><path style="opacity:0.431" fill="#91474e" d="M 57.5,77.5 C 56.6909,75.7078 56.1909,73.7078 56,71.5C 55.6174,72.056 55.1174,72.3893 54.5,72.5C 54.5,71.5 54.5,70.5 54.5,69.5C 54.5,68.8333 54.5,68.1667 54.5,67.5C 55.7498,67.4226 56.5831,66.756 57,65.5C 57.4988,69.4862 57.6655,73.4862 57.5,77.5 Z"/></g>
<g><path style="opacity:0.138" fill="#673a5c" d="M 38.5,62.5 C 40.4109,62.5743 41.5776,63.5743 42,65.5C 42.2784,64.5842 42.7784,63.9175 43.5,63.5C 43.6659,68.5111 43.4993,73.5111 43,78.5C 42.6174,79.056 42.1174,79.3893 41.5,79.5C 40.6625,74.8041 39.6625,70.1374 38.5,65.5C 38.5,64.5 38.5,63.5 38.5,62.5 Z"/></g>
<g><path style="opacity:0.31" fill="#814185" d="M 20.5,61.5 C 21.1667,61.8333 21.8333,62.1667 22.5,62.5C 23.1667,64.5 23.8333,66.5 24.5,68.5C 25.2216,68.9175 25.7216,69.5842 26,70.5C 26.6708,69.7476 27.5041,69.4142 28.5,69.5C 28.3082,74.6507 28.3082,79.6507 28.5,84.5C 27.8826,84.6107 27.3826,84.944 27,85.5C 26.8603,82.9568 26.1937,80.6234 25,78.5C 24.1768,85.1344 23.6768,85.1344 23.5,78.5C 23.4233,75.1424 23.09,72.1424 22.5,69.5C 21.36,66.9752 20.6933,64.3085 20.5,61.5 Z"/></g>
<g><path style="opacity:0.173" fill="#93494e" d="M 49.5,64.5 C 50.1667,64.8333 50.8333,65.1667 51.5,65.5C 51.5,69.5 51.5,73.5 51.5,77.5C 50.7321,76.7375 50.2321,75.7375 50,74.5C 49.5017,71.1832 49.335,67.8499 49.5,64.5 Z"/></g>
<g><path style="opacity:0.15" fill="#9c4d4d" d="M 62.5,65.5 C 62.8174,68.5719 62.4841,71.5719 61.5,74.5C 60.8182,73.7573 60.1515,73.0906 59.5,72.5C 58.9791,69.3637 59.9791,67.0304 62.5,65.5 Z"/></g>
<g><path style="opacity:0.12" fill="#62395b" d="M 22.5,69.5 C 23.09,72.1424 23.4233,75.1424 23.5,78.5C 22.7109,78.7828 22.0442,79.2828 21.5,80C 22.0352,81.4616 22.0352,83.1282 21.5,85C 21.5839,88.6047 22.5839,89.1047 24.5,86.5C 25.2975,86.9569 25.6309,87.6236 25.5,88.5C 25.5,88.8333 25.5,89.1667 25.5,89.5C 23.5,89.5 21.5,89.5 19.5,89.5C 20.0659,82.5491 19.3993,75.8824 17.5,69.5C 18.4584,69.0472 19.2917,68.3805 20,67.5C 20.3333,69.1667 20.6667,70.8333 21,72.5C 21.2321,71.2625 21.7321,70.2625 22.5,69.5 Z"/></g>
<g><path style="opacity:0.02" fill="#6b3d5b" d="M 78.5,62.5 C 78.6655,66.5138 78.4988,70.5138 78,74.5C 76.0858,75.676 76.2524,76.676 78.5,77.5C 77.8075,78.5178 77.1408,79.5178 76.5,80.5C 75.8686,78.0248 74.8686,75.6915 73.5,73.5C 73.8432,71.5168 73.1765,70.1834 71.5,69.5C 71.5,69.1667 71.5,68.8333 71.5,68.5C 71.5,68.1667 71.5,67.8333 71.5,67.5C 71.2308,65.5714 71.7308,63.9047 73,62.5C 73.4517,65.8772 74.1184,69.2105 75,72.5C 75.3333,69.5 75.6667,66.5 76,63.5C 76.6708,62.7476 77.5041,62.4142 78.5,62.5 Z"/></g>
<g><path style="opacity:0.114" fill="#9a4f4d" d="M 71.5,68.5 C 71.5,68.8333 71.5,69.1667 71.5,69.5C 71.5,74.1667 71.5,78.8333 71.5,83.5C 70.5987,82.7095 69.9321,81.7095 69.5,80.5C 69.5,76.8333 69.5,73.1667 69.5,69.5C 70.1667,69.1667 70.8333,68.8333 71.5,68.5 Z"/></g>
<g><path style="opacity:0.077" fill="#663b5a" d="M 79.5,60.5 C 80.3213,63.6414 80.8213,66.9748 81,70.5C 81.21,68.9419 81.71,67.6085 82.5,66.5C 82.8293,72.5368 82.4959,78.5368 81.5,84.5C 80.914,84.2907 80.414,83.9574 80,83.5C 79.5003,75.8406 79.3336,68.1739 79.5,60.5 Z"/></g>
<g><path style="opacity:0.091" fill="#6e3c58" d="M 62.5,61.5 C 63.1499,61.8039 63.8165,62.1373 64.5,62.5C 65.7948,66.3803 65.7948,70.2136 64.5,74C 65.0442,74.7172 65.7109,75.2172 66.5,75.5C 66.5394,76.5832 66.8728,77.5832 67.5,78.5C 66.2528,80.323 65.5861,82.323 65.5,84.5C 64.8333,84.5 64.5,84.8333 64.5,85.5C 63.8826,85.3893 63.3826,85.056 63,84.5C 62.5065,86.1341 62.3398,87.8008 62.5,89.5C 61.5,89.5 60.5,89.5 59.5,89.5C 59.5,84.8333 59.5,80.1667 59.5,75.5C 59.5,74.5 59.5,73.5 59.5,72.5C 60.1515,73.0906 60.8182,73.7573 61.5,74.5C 62.4841,71.5719 62.8174,68.5719 62.5,65.5C 62.5,64.1667 62.5,62.8333 62.5,61.5 Z"/></g>
<g><path style="opacity:0.506" fill="#603662" d="M 20.5,61.5 C 20.6933,64.3085 21.36,66.9752 22.5,69.5C 21.7321,70.2625 21.2321,71.2625 21,72.5C 20.6667,70.8333 20.3333,69.1667 20,67.5C 19.2917,68.3805 18.4584,69.0472 17.5,69.5C 16.8333,73.5 16.1667,77.5 15.5,81.5C 13.8235,80.8166 13.1568,79.4832 13.5,77.5C 14.6066,73.8576 15.6066,70.1909 16.5,66.5C 17.8333,65.8333 17.8333,65.1667 16.5,64.5C 16.6462,61.4502 17.9796,60.4502 20.5,61.5 Z"/></g>
<g><path style="opacity:0.157" fill="#673959" d="M 31.5,58.5 C 33.2371,61.008 34.0704,64.008 34,67.5C 34.8518,68.5707 35.6851,69.5707 36.5,70.5C 38.2432,72.1261 38.7432,74.1261 38,76.5C 37.5581,74.3215 36.5581,73.6548 35,74.5C 34.8238,78.6877 34.3238,82.6877 33.5,86.5C 32.9637,78.3464 32.2971,70.3464 31.5,62.5C 32.4054,61.0357 32.4054,59.7024 31.5,58.5 Z"/></g>
<g><path style="opacity:0.156" fill="#60365c" d="M 38.5,65.5 C 39.6625,70.1374 40.6625,74.8041 41.5,79.5C 39.8986,82.5836 39.2319,85.917 39.5,89.5C 37.5,89.5 35.5,89.5 33.5,89.5C 33.5,88.5 33.5,87.5 33.5,86.5C 34.3238,82.6877 34.8238,78.6877 35,74.5C 36.5581,73.6548 37.5581,74.3215 38,76.5C 38.7432,74.1261 38.2432,72.1261 36.5,70.5C 37.5025,68.9891 38.1692,67.3224 38.5,65.5 Z"/></g>
<g><path style="opacity:0.138" fill="#683859" d="M 69.5,69.5 C 69.5,73.1667 69.5,76.8333 69.5,80.5C 67.8356,81.9488 67.0023,83.9488 67,86.5C 66.7216,85.5842 66.2216,84.9175 65.5,84.5C 65.5861,82.323 66.2528,80.323 67.5,78.5C 66.8728,77.5832 66.5394,76.5832 66.5,75.5C 67.8333,73.8333 67.8333,72.1667 66.5,70.5C 67.391,69.8902 68.391,69.5569 69.5,69.5 Z"/></g>
<g><path style="opacity:0.175" fill="#6c3b5f" d="M 28.5,69.5 C 29.3227,72.977 29.8227,76.6437 30,80.5C 30.1981,78.6183 30.6981,76.9516 31.5,75.5C 31.5,80.1667 31.5,84.8333 31.5,89.5C 30.5,89.5 29.5,89.5 28.5,89.5C 28.5,87.8333 28.5,86.1667 28.5,84.5C 28.3082,79.6507 28.3082,74.6507 28.5,69.5 Z"/></g>
<g><path style="opacity:0.166" fill="#603659" d="M 69.5,80.5 C 69.9321,81.7095 70.5987,82.7095 71.5,83.5C 71.5,85.5 71.5,87.5 71.5,89.5C 69.1667,89.5 66.8333,89.5 64.5,89.5C 64.5,88.1667 64.5,86.8333 64.5,85.5C 64.5,84.8333 64.8333,84.5 65.5,84.5C 66.2216,84.9175 66.7216,85.5842 67,86.5C 67.0023,83.9488 67.8356,81.9488 69.5,80.5 Z"/></g>
<g><path style="opacity:0.392" fill="#61385e" d="M 12.5,63.5 C 13.4861,67.97 13.8195,72.6367 13.5,77.5C 13.1568,79.4832 13.8235,80.8166 15.5,81.5C 16.2653,84.0961 16.5987,86.7628 16.5,89.5C 15.1667,89.5 13.8333,89.5 12.5,89.5C 12.6,80.9836 12.6,72.3169 12.5,63.5 Z"/></g>
<g><path style="opacity:0.166" fill="#6a395b" d="M 57.5,77.5 C 57.5,78.1667 57.5,78.8333 57.5,79.5C 57.151,82.6125 57.151,85.9458 57.5,89.5C 56.5,89.5 55.5,89.5 54.5,89.5C 54.5,83.8333 54.5,78.1667 54.5,72.5C 55.1174,72.3893 55.6174,72.056 56,71.5C 56.1909,73.7078 56.6909,75.7078 57.5,77.5 Z"/></g>
<g><path style="opacity:0.014" fill="#673d5c" d="M 23.5,78.5 C 23.6768,85.1344 24.1768,85.1344 25,78.5C 26.1937,80.6234 26.8603,82.9568 27,85.5C 27.3826,84.944 27.8826,84.6107 28.5,84.5C 28.5,86.1667 28.5,87.8333 28.5,89.5C 27.8333,89.5 27.1667,89.5 26.5,89.5C 26.5,88.8333 26.1667,88.5 25.5,88.5C 25.6309,87.6236 25.2975,86.9569 24.5,86.5C 22.5839,89.1047 21.5839,88.6047 21.5,85C 22.0352,83.1282 22.0352,81.4616 21.5,80C 22.0442,79.2828 22.7109,78.7828 23.5,78.5 Z"/></g>
<g><path style="opacity:0.137" fill="#9b4c4d" d="M 59.5,75.5 C 59.5,80.1667 59.5,84.8333 59.5,89.5C 58.8333,89.5 58.1667,89.5 57.5,89.5C 57.151,85.9458 57.151,82.6125 57.5,79.5C 58.1667,78.1667 58.8333,76.8333 59.5,75.5 Z"/></g>
<g><path style="opacity:0.149" fill="#5e375a" d="M 73.5,73.5 C 74.8686,75.6915 75.8686,78.0248 76.5,80.5C 76.5,83.5 76.5,86.5 76.5,89.5C 75.5,89.5 74.5,89.5 73.5,89.5C 73.5,84.1667 73.5,78.8333 73.5,73.5 Z"/></g>
</svg>
